<?xml version="1.0" standalone="no"?>
<!DOCTYPE svg PUBLIC "-//W3C//DTD SVG 20010904//EN"
 "http://www.w3.org/TR/2001/REC-SVG-20010904/DTD/svg10.dtd">
<svg version="1.0" xmlns="http://www.w3.org/2000/svg"
 width="32.000000pt" height="32.000000pt" viewBox="0 0 32.000000 32.000000"
 preserveAspectRatio="xMidYMid meet">

<g transform="translate(0.000000,32.000000) scale(0.100000,-0.100000)"
fill="#000000" stroke="none">
<path d="M117 300 c-39 -31 -97 -115 -97 -141 0 -12 10 -33 22 -46 l22 -23
-26 -28 c-14 -15 -28 -35 -31 -44 -6 -16 1 -18 48 -18 44 0 55 3 60 19 5 16
10 17 34 8 44 -16 74 -2 119 59 49 66 53 99 17 142 -28 33 -111 92 -130 92 -7
0 -24 -9 -38 -20z"/>
</g>
</svg>
